<svg xmlns="http://www.w3.org/2000/svg" width="128" height="128" viewBox="0 0 16 16" role="img" aria-label="Agent Swarm bee icon 128px">
  <title>Agent Swarm Bee</title>
  <rect width="16" height="16" fill="none"/>
  <g fill="#2d1810">
    <rect x="5" y="1" width="1" height="1"/>
    <rect x="6" y="2" width="1" height="1"/>
    <rect x="10" y="1" width="1" height="1"/>
    <rect x="9" y="2" width="1" height="1"/>
  </g>
  <g fill="#3a2416">
    <rect x="5" y="3" width="6" height="1"/>
    <rect x="4" y="4" width="1" height="1"/>
    <rect x="11" y="4" width="1" height="1"/>
    <rect x="4" y="5" width="1" height="1"/>
    <rect x="11" y="5" width="1" height="1"/>
  </g>
  <g fill="#FFB300">
    <rect x="5" y="4" width="6" height="1"/>
    <rect x="5" y="5" width="6" height="1"/>
  </g>
  <g fill="#1a1a1a">
    <rect x="6" y="4" width="1" height="1"/>
    <rect x="9" y="4" width="1" height="1"/>
  </g>
  <g fill="#ffffff">
    <rect x="6" y="3" width="1" height="1" opacity="0.4"/>
    <rect x="9" y="3" width="1" height="1" opacity="0.4"/>
  </g>
  <g fill="#3a2416">
    <rect x="4" y="6" width="1" height="1"/>
    <rect x="11" y="6" width="1" height="1"/>
    <rect x="3" y="7" width="1" height="2"/>
    <rect x="12" y="7" width="1" height="2"/>
    <rect x="3" y="9" width="1" height="1"/>
    <rect x="12" y="9" width="1" height="1"/>
    <rect x="4" y="10" width="1" height="1"/>
    <rect x="11" y="10" width="1" height="1"/>
    <rect x="5" y="11" width="6" height="1"/>
  </g>
  <g fill="#FFA500">
    <rect x="5" y="6" width="6" height="1"/>
    <rect x="4" y="7" width="8" height="1"/>
  </g>
  <g fill="#5a3a1a">
    <rect x="4" y="8" width="8" height="1"/>
  </g>
  <g fill="#FFD700">
    <rect x="4" y="9" width="8" height="1"/>
  </g>
  <g fill="#5a3a1a">
    <rect x="5" y="10" width="6" height="1"/>
  </g>
  <g fill="#d4e8f7" opacity="0.75">
    <rect x="1" y="7" width="1" height="1"/>
    <rect x="2" y="7" width="2" height="2"/>
    <rect x="2" y="9" width="1" height="1"/>
    <rect x="14" y="7" width="1" height="1"/>
    <rect x="12" y="7" width="2" height="2"/>
    <rect x="13" y="9" width="1" height="1"/>
  </g>
  <g fill="#b0c8d8" opacity="0.5">
    <rect x="1" y="6" width="1" height="1"/>
    <rect x="2" y="6" width="1" height="1"/>
    <rect x="14" y="6" width="1" height="1"/>
    <rect x="13" y="6" width="1" height="1"/>
  </g>
  <g fill="#3a2416">
    <rect x="7" y="12" width="2" height="1"/>
    <rect x="7" y="13" width="2" height="1" opacity="0.7"/>
  </g>
  <g fill="#ffe4b3" opacity="0.3">
    <rect x="5" y="6" width="2" height="1"/>
    <rect x="9" y="6" width="2" height="1"/>
  </g>
</svg>
